<?xml version="1.0" encoding="utf-8"?>
<!-- Generator: Adobe Illustrator 18.0.0, SVG Export Plug-In . SVG Version: 6.00 Build 0)  -->
<!DOCTYPE svg PUBLIC "-//W3C//DTD SVG 1.1//EN" "http://www.w3.org/Graphics/SVG/1.1/DTD/svg11.dtd">
<svg version="1.1" id="Layer_1" xmlns="http://www.w3.org/2000/svg" xmlns:xlink="http://www.w3.org/1999/xlink" x="0px" y="0px"
	 viewBox="0 0 452 230" enable-background="new 0 0 452 230" xml:space="preserve">
<g>
	<g>
		<path fill="#FFFFFF" d="M332.8,48.9c0-26.5-21.4-48.1-47.8-48.1c-26.3,0-47.8,21.6-47.8,48.1v62.7c0,1.7,1.4,3.2,3.1,3.2h16.3
			c1.7,0,3.1-1.4,3.1-3.2V48.9c0-14,11.3-25.3,25.1-25.3s25.1,11.3,25.1,25.3v62.7c0,1.7,1.4,3.2,3.1,3.2h16.3
			c1.7,0,3.1-1.4,3.1-3.2L332.8,48.9L332.8,48.9z"/>
		<path fill="#FFFFFF" d="M1,3.9v16.5c0,1.7,1.4,3.2,3.1,3.2h30.2c1.7,0,3.1,1.4,3.1,3.2v84.9c0,1.7,1.4,3.2,3.1,3.2h16.3
			c1.7,0,3.1-1.4,3.1-3.2V26.7c0-1.7,1.4-3.2,3.1-3.2h30.2c1.7,0,3.1-1.4,3.1-3.2V3.9c0-1.7-1.4-3.2-3.1-3.2H4.1
			C2.4,0.8,1,2.2,1,3.9z"/>
		<path fill="#FFFFFF" d="M119.2,66.7c0,26.5,21.4,48.1,47.8,48.1c26.3,0,47.8-21.6,47.8-48.1V3.9c0-1.7-1.4-3.2-3.1-3.2h-16.3
			c-1.7,0-3.1,1.4-3.1,3.2v62.7c0,14-11.3,25.3-25.1,25.3c-13.9,0-25.1-11.3-25.1-25.3V3.9c0-1.7-1.4-3.2-3.1-3.2h-16.3
			c-1.7,0-3.1,1.4-3.1,3.2L119.2,66.7L119.2,66.7z"/>
		<path fill="#FFFFFF" d="M403.2,23.6h44.6c1.7,0,3.1-1.4,3.1-3.2V3.9c0-1.7-1.4-3.2-3.1-3.2h-45.3v0v0
			c-26.1,0.3-47.1,21.7-47.1,48.1v17.7c0,26.4,21,47.8,47.1,48.1v0v0h45.3c1.7,0,3.1-1.4,3.1-3.2V95.1c0-1.7-1.4-3.2-3.1-3.2h-44.6
			c-11.7,0-21.5-8-24.3-18.9c-0.5-2,1-3.9,3.1-3.9h65.9c1.7,0,3.1-1.4,3.1-3.2V49.5c0-1.7-1.4-3.2-3.1-3.2H382c-2,0-3.6-1.9-3.1-3.9
			C381.8,31.6,391.6,23.6,403.2,23.6z"/>
	</g>
	<g>
		<path fill="#7CCBEA" d="M33.3,146.2h22.5v4.8H38.6v7.9h15.2v4.8H38.6v8.2H56v4.8H33.3V146.2z"/>
		<path fill="#7CCBEA" d="M62.4,146.2h5.7l9.3,14.4l9.3-14.4h5.7v30.4h-5.3v-21.8l-9.6,14.3h-0.2l-9.5-14.2v21.7h-5.3V146.2z"/>
		<path fill="#7CCBEA" d="M110.8,146h5l13.4,30.6h-5.6l-3.1-7.3h-14.4l-3.1,7.3h-5.5L110.8,146z M118.5,164.5l-5.3-12.2l-5.2,12.2
			H118.5z"/>
		<path fill="#7CCBEA" d="M134.7,146.2h5.3v30.4h-5.3V146.2z"/>
		<path fill="#7CCBEA" d="M148.1,146.2h5.3v25.5h16v4.9h-21.3V146.2z"/>
		<path fill="#7CCBEA" d="M195.5,151.1h-9.6v-5h24.7v5h-9.6v25.5h-5.4V151.1z"/>
		<path fill="#7CCBEA" d="M216.2,146.2h22.5v4.8h-17.2v7.9h15.2v4.8h-15.2v8.2H239v4.8h-22.8V146.2z"/>
		<path fill="#7CCBEA" d="M245.3,146.2h5.7l9.3,14.4l9.3-14.4h5.7v30.4h-5.3v-21.8l-9.6,14.3h-0.2l-9.5-14.2v21.7h-5.3V146.2z"/>
		<path fill="#7CCBEA" d="M283,146.2h12c7.1,0,11.6,4,11.6,10.2v0.1c0,6.8-5.5,10.4-12.2,10.4h-6v9.8H283V146.2z M294.6,162
			c4,0,6.6-2.3,6.6-5.4v-0.1c0-3.6-2.6-5.4-6.6-5.4h-6.2V162H294.6z"/>
		<path fill="#7CCBEA" d="M312,146.2h5.3v25.5h16v4.9H312V146.2z"/>
		<path fill="#7CCBEA" d="M349.7,146h5l13.4,30.6h-5.6l-3.1-7.3h-14.4l-3.1,7.3h-5.5L349.7,146z M357.3,164.5l-5.3-12.2l-5.2,12.2
			H357.3z"/>
		<path fill="#7CCBEA" d="M376.8,151.1h-9.6v-5h24.7v5h-9.6v25.5h-5.4V151.1z"/>
		<path fill="#7CCBEA" d="M397.5,146.2H420v4.8h-17.2v7.9H418v4.8h-15.2v8.2h17.4v4.8h-22.8V146.2z"/>
		<path fill="#7CCBEA" d="M27.5,198.3h11.3c9.6,0,16.2,6.6,16.2,15.1v0.1c0,8.6-6.6,15.2-16.2,15.2H27.5V198.3z M32.9,203.2v20.7h6
			c6.4,0,10.6-4.3,10.6-10.2v-0.1c0-6-4.2-10.3-10.6-10.3H32.9z"/>
		<path fill="#7CCBEA" d="M60.2,213.6L60.2,213.6c0-8.6,6.6-15.8,15.9-15.8c9.3,0,15.9,7.1,15.9,15.6v0.1c0,8.6-6.6,15.7-15.9,15.7
			S60.2,222.1,60.2,213.6z M86.4,213.6L86.4,213.6c0-6-4.3-10.9-10.3-10.9s-10.2,4.8-10.2,10.7v0.1c0,5.9,4.3,10.8,10.3,10.8
			C82.1,224.3,86.4,219.5,86.4,213.6z"/>
		<path fill="#7CCBEA" d="M97.1,213.6L97.1,213.6c0-8.7,6.5-15.8,15.7-15.8c5.6,0,9,2,11.9,4.7l-3.4,4c-2.4-2.3-5-3.8-8.5-3.8
			c-5.8,0-10,4.8-10,10.7v0.1c0,6,4.2,10.8,10,10.8c3.7,0,6.1-1.5,8.7-3.9l3.4,3.5c-3.2,3.3-6.6,5.4-12.3,5.4
			C103.7,229.2,97.1,222.3,97.1,213.6z"/>
		<path fill="#7CCBEA" d="M130,215.8v-17.5h5.3v17.3c0,5.6,2.9,8.6,7.7,8.6c4.7,0,7.6-2.8,7.6-8.4v-17.5h5.3v17.2
			c0,9.1-5.1,13.6-13.1,13.6C135,229.2,130,224.6,130,215.8z"/>
		<path fill="#7CCBEA" d="M163.4,198.3h5.7l9.3,14.4l9.3-14.4h5.7v30.4h-5.3v-21.8l-9.6,14.3h-0.2l-9.5-14.2v21.7h-5.3V198.3z"/>
		<path fill="#7CCBEA" d="M201.1,198.3h22.5v4.8h-17.2v7.9h15.2v4.8h-15.2v8.2h17.4v4.8h-22.8V198.3z"/>
		<path fill="#7CCBEA" d="M230.2,198.3h5l16.3,21v-21h5.3v30.4h-4.5l-16.8-21.6v21.6h-5.3V198.3z"/>
		<path fill="#7CCBEA" d="M272,203.2h-9.6v-5H287v5h-9.6v25.5H272V203.2z"/>
		<path fill="#7CCBEA" d="M299.5,198.1h5l13.4,30.6h-5.6l-3.1-7.3h-14.4l-3.1,7.3h-5.5L299.5,198.1z M307.1,216.6l-5.3-12.2
			l-5.2,12.2H307.1z"/>
		<path fill="#7CCBEA" d="M326.6,203.2H317v-5h24.7v5H332v25.5h-5.4V203.2z"/>
		<path fill="#7CCBEA" d="M347.6,198.3h5.3v30.4h-5.3V198.3z"/>
		<path fill="#7CCBEA" d="M359.7,213.6L359.7,213.6c0-8.6,6.6-15.8,15.9-15.8s15.9,7.1,15.9,15.6v0.1c0,8.6-6.6,15.7-15.9,15.7
			S359.7,222.1,359.7,213.6z M385.9,213.6L385.9,213.6c0-6-4.3-10.9-10.3-10.9s-10.3,4.8-10.3,10.7v0.1c0,5.9,4.3,10.8,10.3,10.8
			C381.7,224.3,385.9,219.5,385.9,213.6z"/>
		<path fill="#7CCBEA" d="M398,198.3h5l16.3,21v-21h5.3v30.4H420l-16.8-21.6v21.6H398V198.3z"/>
	</g>
</g>
</svg>
